<?xml version="1.0" encoding="UTF-8" standalone="no"?>
<svg
   xmlns:dc="http://purl.org/dc/elements/1.1/"
   xmlns:cc="http://creativecommons.org/ns#"
   xmlns:rdf="http://www.w3.org/1999/02/22-rdf-syntax-ns#"
   xmlns:svg="http://www.w3.org/2000/svg"
   xmlns="http://www.w3.org/2000/svg"
   xmlns:sodipodi="http://sodipodi.sourceforge.net/DTD/sodipodi-0.dtd"
   xmlns:inkscape="http://www.inkscape.org/namespaces/inkscape"
   width="90"
   height="20"
   id="svg2"
   version="1.1"
   inkscape:version="0.91 r13725"
   sodipodi:docname="badge.svg">
  <metadata
     id="metadata32">
    <rdf:RDF>
      <cc:Work
         rdf:about="">
        <dc:format>image/svg+xml</dc:format>
        <dc:type
           rdf:resource="http://purl.org/dc/dcmitype/StillImage" />
      </cc:Work>
    </rdf:RDF>
  </metadata>
  <defs
     id="defs30" />
  <sodipodi:namedview
     pagecolor="#ffffff"
     bordercolor="#666666"
     borderopacity="1"
     objecttolerance="10"
     gridtolerance="10"
     guidetolerance="10"
     inkscape:pageopacity="0"
     inkscape:pageshadow="2"
     inkscape:window-width="1280"
     inkscape:window-height="755"
     id="namedview28"
     showgrid="false"
     inkscape:zoom="4.87118"
     inkscape:cx="59.413322"
     inkscape:cy="28.509066"
     inkscape:window-x="-1"
     inkscape:window-y="0"
     inkscape:window-maximized="0"
     inkscape:current-layer="svg2" />
  <linearGradient
     id="b"
     x2="0"
     y2="100%">
    <stop
       offset="0"
       stop-color="#bbb"
       stop-opacity=".1"
       id="stop5" />
    <stop
       offset="1"
       stop-opacity=".1"
       id="stop7" />
  </linearGradient>
  <mask
     id="a">
    <rect
       width="90"
       height="20"
       rx="3"
       fill="#fff"
       id="rect10" />
  </mask>
  <g
     mask="url(#a)"
     id="g12">
    <path
       fill="#555"
       d="M0 0h25v20H0z"
       id="path14" />
    <path
       fill="#97CA00"
       d="M25 0h65v20H25z"
       id="path16" />
    <path
       fill="url(#b)"
       d="M0 0h90v20H0z"
       id="path18" />
  </g>
  <g
     fill="#fff"
     text-anchor="middle"
     font-family="DejaVu Sans,Verdana,Geneva,sans-serif"
     font-size="11"
     id="g20">
    <text
       x="56.5"
       y="15"
       fill="#010101"
       fill-opacity=".3"
       id="text24">supported</text>
    <text
       x="56.5"
       y="14"
       id="text26">supported</text>
  </g>
  <path
     style="fill:#ffffff;fill-opacity:1"
     d="M 11.210737,16.912771 C 10.081983,16.770197 9.025226,16.382612 8.320512,15.852729 7.7228266,15.403322 6.8194117,14.43016 6.5774553,13.975102 c -0.180853,-0.340138 -0.074427,-0.597803 0.2469249,-0.597803 0.1425707,0 0.1807589,0.01561 0.2719244,0.111162 0.058334,0.06114 0.1833198,0.242856 0.2777473,0.403816 0.37635,0.641518 0.8669541,1.142474 1.6039731,1.637818 0.506993,0.340747 0.886118,0.506929 1.607665,0.704682 0.533913,0.14633 0.986001,0.190326 1.535178,0.149402 1.016332,-0.07574 1.630031,-0.288697 2.45642,-0.852413 0.683069,-0.465951 1.248158,-1.029789 1.679333,-1.675613 0.436531,-0.653851 0.495241,-0.870428 0.393996,-1.453476 -0.08828,-0.508356 -0.08793,-0.745613 0.0017,-1.167905 0.04814,-0.226795 0.0776,-0.522092 0.08994,-0.901617 0.02791,-0.8581895 -0.05784,-1.5827255 -0.283759,-2.3976234 -0.09276,-0.3345916 -0.112034,-0.4504325 -0.08624,-0.5182862 0.07625,-0.2005472 0.237992,-0.164825 0.341327,0.075386 0.12158,0.2826225 0.309893,0.9815407 0.387137,1.4368617 0.09997,0.589266 0.105292,1.6078049 0.01099,2.1048409 -0.08036,0.423598 -0.08132,0.917944 -0.0026,1.351052 0.03923,0.215853 0.05154,0.392753 0.03665,0.526945 -0.07423,0.669448 -0.769394,1.734694 -1.642479,2.516903 -0.772501,0.692094 -1.571125,1.123526 -2.548187,1.376579 -0.353311,0.0915 -0.456007,0.102901 -1.009014,0.111975 -0.338619,0.0056 -0.669542,0.0033 -0.735384,-0.005 z m 2.840253,-1.421283 c -0.124176,-0.133286 -0.09158,-0.187811 0.285462,-0.477459 0.97573,-0.749572 1.454009,-1.326644 1.727704,-2.084573 0.18109,-0.501482 0.274151,-0.697576 0.312737,-0.658989 0.06003,0.06002 0.142301,0.535038 0.122608,0.707899 -0.01084,0.09511 -0.05936,0.22941 -0.11417,0.315947 -0.05242,0.08278 -0.179976,0.292037 -0.283442,0.465004 -0.29677,0.49612 -1.105446,1.298352 -1.689843,1.676378 -0.234444,0.151653 -0.267054,0.156693 -0.361056,0.05579 z M 6.1203188,14.12736 C 5.8948028,14.014668 5.7475435,13.862528 5.6260672,13.616725 L 5.55,13.462808 5.5509726,10.025321 C 5.5515287,8.1347016 5.564167,6.4993629 5.5790734,6.3912337 5.6024933,6.2213588 5.6288483,6.1698325 5.7729448,6.0121658 5.9340267,5.8359153 6.2566693,5.6316826 6.4120605,5.6076039 6.5100511,5.5924213 6.5090586,5.612981 6.4015753,5.8251283 6.1859628,6.250621 6.380911,6.6389113 6.8102334,6.6390853 7.0391571,6.6391547 7.157877,6.5238747 7.4721723,5.9961982 l 0.067172,-0.1127812 0.089881,0.1298824 c 0.2242933,0.3241175 0.2109778,0.077186 0.2117237,3.9265115 l 7.072e-4,3.4887941 -0.1132603,0.195949 c -0.062291,0.107773 -0.1302282,0.206436 -0.1509683,0.219255 -0.044841,0.02771 -0.1389415,-0.08243 -0.2938779,-0.343995 -0.131748,-0.222419 -0.2589031,-0.301428 -0.4851121,-0.301428 -0.2002828,0 -0.3492896,0.07593 -0.4413475,0.224875 -0.106027,0.171554 -0.091975,0.334234 0.050948,0.589803 l 0.122657,0.21933 -0.1000928,0 c -0.055048,0 -0.1946788,-0.04727 -0.3102858,-0.105034 z M 6.870619,12.451553 c 0.155811,-0.04041 0.4230514,-0.273373 0.5107172,-0.445211 0.050903,-0.09978 0.066974,-0.20085 0.066974,-0.421157 0,-0.342854 -0.023271,-0.41508 -0.1951452,-0.605735 -0.3757781,-0.416833 -1.0271445,-0.408915 -1.4020871,0.01704 -0.3685893,0.41874 -0.2402304,1.080598 0.2726899,1.406065 0.1862883,0.118207 0.4206914,0.133586 0.7468478,0.049 z M 6.3024847,12.218782 c -0.4207004,-0.192155 -0.5866933,-0.70117 -0.3468482,-1.063601 0.3568644,-0.539259 1.1916409,-0.40613 1.3194748,0.210427 0.042575,0.205363 0.02395,0.39433 -0.054062,0.548483 -0.1573628,0.310948 -0.5903938,0.454585 -0.9185672,0.304691 z M 6.9643856,9.8290404 C 7.1522377,9.6887883 7.1807092,9.6130563 7.2139072,9.1653373 7.2473344,8.7144944 7.2238846,7.9005016 7.1715332,7.6946655 7.1333412,7.544514 6.966523,7.3730431 6.8076068,7.3205968 6.6201162,7.258716 6.4687876,7.3078488 6.2945058,7.4871685 l -0.155091,0.1595771 0.016258,0.9242072 c 0.017379,0.9879723 0.025937,1.0386123 0.2034336,1.2043355 0.1704641,0.1591565 0.4328853,0.1824611 0.605277,0.053745 z M 6.4311378,9.5892207 6.3229481,9.4951598 6.2997297,8.6379761 6.2765113,7.7807923 6.4203464,7.6576752 C 6.592948,7.5099344 6.7019823,7.4771993 6.8257596,7.5359592 7.014301,7.6254647 7.0377584,7.7410985 7.0378174,8.5813058 7.037886,9.3997433 7.0179527,9.5188708 6.8628536,9.6275068 6.738355,9.7147065 6.5569755,9.6986262 6.4311408,9.5892174 Z M 17.354701,12.059508 c -0.04195,-0.109321 -0.0202,-0.518151 0.05001,-0.939664 0.06203,-0.372395 0.06941,-0.53344 0.0573,-1.2484407 C 17.449398,9.1275199 17.439276,9.0120056 17.35404,8.6400635 16.739047,5.9562191 15.02421,4.0245891 12.860587,3.5785456 12.519785,3.5082857 11.526758,3.4464684 11.193635,3.474774 10.342313,3.5471101 9.584594,3.8124424 8.867773,4.2892306 8.181674,4.7455837 7.8142555,5.1235352 7.3769003,5.8228394 7.0737755,6.3075183 6.9253035,6.4685353 6.7829471,6.4669812 6.587019,6.4648154 6.4005469,6.2351128 6.4370018,6.0407857 6.4718106,5.855251 6.8283667,5.4123151 7.4311587,4.8057894 7.8557298,4.3785881 8.062028,4.1997865 8.351048,4.0085073 9.263562,3.404585 10.264008,3.062193 11.227839,3.0239577 c 0.66156,-0.026243 1.52366,0.037154 1.936708,0.1424221 1.485114,0.3784967 2.76952,1.3809651 3.627962,2.8315988 0.261297,0.4415483 0.580265,1.0969774 0.728164,1.4962555 0.146227,0.3947621 0.185283,0.466273 0.277643,0.5083551 0.190863,0.086963 0.29397,0.5820556 0.149289,0.7168461 -0.06753,0.062911 -0.06847,0.079716 -0.03021,0.5392193 0.05694,0.6836462 0.02513,1.6340684 -0.06606,1.9740794 -0.07935,0.295888 -0.274583,0.694287 -0.396216,0.808555 -0.06974,0.06552 -0.08147,0.06764 -0.100432,0.01821 z"
     id="path3382"
     inkscape:connector-curvature="0" />
</svg>
